<svg height="480pt" viewBox="0 -25 480.44 480" width="480pt" xmlns="http://www.w3.org/2000/svg"><g fill="#e48e66"><path d="m65.597656 231.472656c-1.328125 2.398438-3.289062 4.386719-5.671875 5.746094-2.40625 1.371094-5.144531 2.0625-7.914062 2h-14.792969v12h14.792969c10.054687.160156 19.363281-5.289062 24.144531-14.132812 2.699219-4.980469 7.914062-8.074219 13.578125-8.0625l32.070313.171874.070312-11.984374-32.113281-.148438c-10.09375 0-19.371094 5.53125-24.164063 14.410156zm0 0"/><path d="m93.589844 278.0625c-5.296875 3.9375-9.160156 9.503906-11 15.84375-2.34375 7.863281-9.554688 13.269531-17.761719 13.3125h-15.609375v12h15.609375c13.546875-.117188 25.425781-9.066406 29.28125-22.050781 1.117187-3.792969 3.464844-7.105469 6.667969-9.425781 3.210937-2.355469 7.109375-3.59375 11.09375-3.523438h8.347656v-12h-8.347656c-6.570313-.101562-12.988282 1.949219-18.28125 5.84375zm0 0"/><path d="m73.179688 130.554688c2.097656 9.714843 10.6875 16.65625 20.628906 16.664062h26.410156v-12h-26.410156c-2.070313.015625-4.085938-.675781-5.714844-1.957031-1.621094-1.359375-2.746094-3.21875-3.191406-5.289063-2.136719-9.707031-10.691406-16.652344-20.632813-16.753906h-33.050781v12h33.050781c4.3125.085938 8 3.121094 8.910157 7.335938zm0 0"/><path d="m104.289062 186.703125c-2.332031-1.558594-4.148437-3.773437-5.222656-6.363281-4.050781-9.765625-13.589844-16.128906-24.167968-16.121094h-11.679688v12h11.679688c5.722656-.027344 10.890624 3.398438 13.09375 8.675781 4.039062 9.808594 13.5625 16.238281 24.167968 16.324219h10.058594v-12h-10.058594c-2.816406-.046875-5.550781-.921875-7.871094-2.515625zm0 0"/><path d="m420.519531 237.21875c-2.390625-1.394531-4.355469-3.417969-5.683593-5.847656-4.804688-8.867188-14.09375-14.378906-24.183594-14.347656l-32.089844.171874.074219 12.011719 32.042969-.144531c5.675781-.003906 10.898437 3.105469 13.601562 8.101562 2.355469 4.304688 5.84375 7.886719 10.085938 10.359376 4.269531 2.480468 9.128906 3.757812 14.0625 3.695312h14.789062v-12h-14.789062c-2.769532.0625-5.503907-.628906-7.910157-2zm0 0"/><path d="m397.847656 293.792969c-1.84375-6.285157-5.703125-11.789063-10.992187-15.65625-5.285157-3.914063-11.707031-5.992188-18.285157-5.917969h-8.351562v12h8.351562c3.980469-.09375 7.878907 1.121094 11.101563 3.460938 3.207031 2.390624 5.546875 5.769531 6.660156 9.617187 3.867188 12.953125 15.757813 21.855469 29.277344 21.921875h15.609375v-12h-15.609375c-8.222656-.09375-15.425781-5.539062-17.761719-13.425781zm0 0"/><path d="m416.171875 111.21875c-9.941406.109375-18.496094 7.058594-20.632813 16.769531-.894531 4.207031-4.605468 7.21875-8.910156 7.230469h-26.410156v12h26.410156c4.820313.007812 9.496094-1.625 13.265625-4.628906 3.742188-3.078125 6.339844-7.332032 7.367188-12.066406.917969-4.207032 4.605469-7.230469 8.910156-7.300782h33.046875v-12.003906zm0 0"/><path d="m382.808594 196.6875c4.300781-2.871094 7.65625-6.949219 9.640625-11.722656 2.191406-5.296875 7.359375-8.746094 13.089843-8.746094h11.679688v-12h-11.679688c-10.5625-.035156-20.105468 6.300781-24.167968 16.054688-2.171875 5.335937-7.328125 8.859374-13.089844 8.945312h-10.0625v12h10.0625c5.183594-.046875 10.238281-1.621094 14.527344-4.53125zm0 0"/><path d="m360.21875 358.21875v32c0 22.09375-17.90625 40-40 40h-160c-22.089844 0-40-17.90625-40-40v-32zm-105 36c0-8.28125-6.714844-15-15-15-8.28125 0-15 6.71875-15 15 0 8.285156 6.71875 15 15 15 8.285156 0 15-6.714844 15-15zm0 0"/></g><path d="m360.21875 223.210938v135.007812h-240v-318c0-22.089844 17.910156-40 40-40h160c22.09375 0 40 17.910156 40 40zm-30.4375.839843c4.875-49.464843-31.269531-93.515625-80.730469-98.390625-49.464843-4.875-93.511719 31.269532-98.390625 80.730469-4.875 49.460937 31.265625 93.511719 80.730469 98.390625 49.460937 4.871094 93.507813-31.269531 98.390625-80.730469zm0 0" fill="#f8ec7d"/><path d="m249.050781 125.660156c49.460938 4.875 85.605469 48.925782 80.730469 98.390625-4.878906 49.460938-48.929688 85.605469-98.390625 80.730469-49.464844-4.878906-85.605469-48.929688-80.730469-98.390625 4.878906-49.460937 48.929688-85.605469 98.390625-80.730469zm26.667969 116.878906v-65c0-2.800781-3.296875-4-6.5-4-3.296875 0-6.5 1.199219-6.5 4v65c0 2.699219 3.203125 4.101563 6.5 4.101563 3.203125 0 6.5-1.402344 6.5-4.101563zm-20.148438-1.300781c-.027343-.339843-.09375-.671875-.199218-1l-19.300782-62.898437c-.898437-3-4.601562-4.398438-8.398437-4.398438-3.703125 0-7.402344 1.398438-8.300781 4.398438l-19.300782 62.898437c-.097656.328125-.164062.664063-.199218 1 0 3.203125 4.699218 5.402344 8.199218 5.402344 2.199219 0 3.898438-.710937 4.398438-2.609375l3.800781-13.3125h22.902344l3.796875 13.3125c.5 1.898438 2.203125 2.609375 4.402344 2.609375 3.5 0 8.199218-2.300781 8.199218-5.402344zm0 0" fill="#6fe3ff"/><path d="m275.71875 177.539062v65c0 2.699219-3.296875 4.101563-6.5 4.101563-3.296875 0-6.5-1.402344-6.5-4.101563v-65c0-2.800781 3.203125-4 6.5-4 3.203125 0 6.5 1.199219 6.5 4zm0 0" fill="#2561a1"/><path d="m255.371094 240.238281c.105468.328125.171875.660157.199218 1 0 3.101563-4.699218 5.402344-8.199218 5.402344-2.199219 0-3.902344-.710937-4.402344-2.609375l-3.796875-13.3125h-22.902344l-3.800781 13.3125c-.5 1.898438-2.199219 2.609375-4.398438 2.609375-3.5 0-8.199218-2.199219-8.199218-5.402344.035156-.335937.101562-.671875.199218-1l19.300782-62.898437c.898437-3 4.597656-4.398438 8.300781-4.398438 3.796875 0 7.5 1.398438 8.398437 4.398438zm-19-19.519531-8.699219-30.699219-8.703125 30.699219zm0 0" fill="#2561a1"/><path d="m255.21875 394.21875c0 8.285156-6.714844 15-15 15-8.28125 0-15-6.714844-15-15 0-8.28125 6.71875-15 15-15 8.285156 0 15 6.71875 15 15zm0 0" fill="#f8ec7d"/><path d="m227.671875 190.019531 8.699219 30.699219h-17.402344zm0 0" fill="#6fe3ff"/><path d="m43.5 245.839844c.003906-10.746094-8.707031-19.457032-19.453125-19.460938-10.746094 0-19.457031 8.710938-19.457031 19.457032 0 10.746093 8.714844 19.457031 19.460937 19.453124 10.734375-.015624 19.433594-8.714843 19.449219-19.449218zm0 0" fill="#6fe3ff"/><path d="m36.140625 293.480469c-10.742187.003906-19.453125 8.710937-19.449219 19.457031 0 10.742188 8.707032 19.453125 19.453125 19.453125 10.742188 0 19.453125-8.707031 19.457031-19.449219-.011718-10.746094-8.71875-19.453125-19.460937-19.460937zm0 0" fill="#6fe3ff"/><path d="m19.449219 136.960938c10.746093 0 19.457031-8.707032 19.460937-19.449219.003906-10.746094-8.707031-19.457031-19.449218-19.460938-10.746094-.003906-19.45703175 8.703125-19.460938 19.449219.0117188 10.738281 8.710938 19.441406 19.449219 19.460938zm0 0" fill="#6fe3ff"/><path d="m51.539062 150.648438c-10.746093 0-19.460937 8.714843-19.460937 19.460937 0 10.75 8.714844 19.460937 19.460937 19.460937 10.75 0 19.460938-8.710937 19.460938-19.460937-.007812-10.742187-8.714844-19.449219-19.460938-19.460937zm0 0" fill="#6fe3ff"/><path d="m456.390625 226.378906c-10.742187.003906-19.453125 8.714844-19.449219 19.457032 0 10.742187 8.707032 19.453124 19.453125 19.453124 10.742188 0 19.453125-8.707031 19.457031-19.449218-.011718-10.742188-8.71875-19.449219-19.460937-19.460938zm0 0" fill="#6fe3ff"/><path d="m444.300781 293.480469c-10.746093-.003907-19.457031 8.703125-19.460937 19.449219-.003906 10.746093 8.707031 19.457031 19.449218 19.460937 10.746094.003906 19.457032-8.707031 19.460938-19.449219-.011719-10.738281-8.710938-19.445312-19.449219-19.460937zm0 0" fill="#6fe3ff"/><path d="m460.988281 136.960938c10.746094-.003907 19.453125-8.714844 19.453125-19.457032-.003906-10.742187-8.710937-19.453125-19.453125-19.453125-10.746093 0-19.457031 8.707031-19.457031 19.449219.007812 10.742188 8.714844 19.449219 19.457031 19.460938zm0 0" fill="#6fe3ff"/><path d="m448.351562 170.109375c-.003906-10.742187-8.71875-19.453125-19.460937-19.449219-10.746094.003906-19.453125 8.714844-19.449219 19.460938 0 10.742187 8.714844 19.453125 19.457032 19.449218 10.742187-.015624 19.441406-8.71875 19.453124-19.460937zm0 0" fill="#6fe3ff"/><path d="m358.78125 66.21875h-18.5625c-3.3125 0-6-2.683594-6-6 0-3.3125 2.6875-6 6-6h18.5625c3.3125 0 6 2.6875 6 6 0 3.316406-2.6875 6-6 6zm0 0" fill="#e2d574"/><path d="m320.03125 66.21875h-11.121094c-3.3125 0-6-2.683594-6-6 0-3.3125 2.6875-6 6-6h11.121094c3.3125 0 6 2.6875 6 6 0 3.316406-2.6875 6-6 6zm0 0" fill="#e2d574"/><path d="m289.21875 66.21875h-169c-3.3125 0-6-2.683594-6-6 0-3.3125 2.6875-6 6-6h169c3.316406 0 6 2.6875 6 6 0 3.316406-2.683594 6-6 6zm0 0" fill="#e2d574"/></svg>